<?xml version="1.0" standalone="no"?>
<!DOCTYPE svg PUBLIC "-//W3C//DTD SVG 20010904//EN"
 "http://www.w3.org/TR/2001/REC-SVG-20010904/DTD/svg10.dtd">
<svg version="1.0" xmlns="http://www.w3.org/2000/svg"
 width="512.000000pt" height="512.000000pt" viewBox="0 0 512.000000 512.000000"
 preserveAspectRatio="xMidYMid meet">

<g transform="translate(0.000000,512.000000) scale(0.100000,-0.100000)"
fill="#000000" stroke="none">
<path d="M1998 5106 c-64 -23 -126 -65 -155 -106 -26 -37 -31 -40 -78 -40
-165 0 -345 -111 -419 -258 -51 -101 -56 -146 -56 -544 0 -203 -4 -368 -8
-368 -20 0 -97 -90 -121 -140 -34 -72 -36 -181 -4 -251 44 -99 143 -174 243
-186 l48 -6 7 -81 c23 -282 138 -528 334 -721 l61 -59 0 -156 0 -155 -55 3
c-77 5 -100 -12 -219 -168 l-101 -133 -374 -143 c-205 -79 -398 -158 -428
-176 -73 -43 -162 -142 -201 -221 -60 -120 -62 -144 -62 -670 l0 -478 25 -24
c31 -32 69 -32 100 0 l25 24 0 465 c0 473 6 573 36 562 19 -7 412 -302 453
-340 18 -17 44 -53 57 -81 23 -49 24 -56 24 -328 l0 -278 25 -24 c31 -32 69
-32 101 0 l25 25 -3 303 -3 302 -31 65 c-17 36 -47 81 -65 101 -19 19 -141
116 -272 213 -130 98 -237 182 -237 186 0 11 68 63 110 85 19 10 190 78 380
151 l345 133 260 -259 c276 -275 308 -299 395 -300 89 0 118 15 228 123 l102
101 0 -586 c0 -401 3 -595 11 -617 19 -54 79 -69 117 -28 l22 23 0 602 c0 331
3 602 8 602 4 0 48 -41 97 -91 102 -104 146 -129 225 -129 84 0 122 24 264
168 112 113 129 135 129 163 0 39 -32 69 -75 69 -26 0 -52 -21 -158 -125 -168
-165 -153 -165 -317 -3 -122 121 -124 123 -103 140 90 73 643 449 650 442 5
-5 41 -51 79 -103 l70 -94 -24 -29 c-34 -41 -34 -90 1 -117 37 -29 58 -26 103
14 l39 36 344 -132 c189 -72 361 -141 383 -152 51 -25 117 -77 113 -88 -2 -5
-115 -93 -252 -196 -365 -275 -356 -258 -356 -691 l0 -291 26 -20 c43 -34 86
-26 109 20 12 22 15 80 15 291 0 153 5 279 11 301 5 21 24 54 42 74 30 34 452
358 481 369 29 11 36 -101 36 -572 l0 -463 26 -20 c35 -28 69 -26 100 4 l25
25 -3 503 -3 502 -26 67 c-60 153 -155 261 -284 323 -38 18 -225 92 -415 165
l-345 132 -100 134 c-111 149 -136 168 -216 162 l-49 -3 0 155 0 156 56 54
c79 77 169 200 219 300 69 138 100 253 120 451 l6 56 49 6 c122 15 223 108
256 238 28 111 -7 222 -95 302 l-49 43 -4 325 c-5 296 -7 331 -27 404 -83 298
-327 523 -629 581 -103 20 -1138 20 -1194 0z m267 -1009 c287 -97 567 -111
834 -40 136 36 128 37 159 -33 66 -147 161 -263 262 -318 47 -26 59 -28 119
-23 43 3 80 1 106 -8 134 -46 148 -232 22 -297 -34 -17 -51 -19 -113 -13 -104
10 -109 3 -118 -156 -11 -203 -34 -297 -108 -446 -131 -263 -398 -461 -694
-513 -113 -20 -318 -8 -427 24 -272 81 -489 266 -608 521 -58 123 -88 251 -96
408 -8 166 -12 172 -118 162 -82 -8 -130 7 -165 53 -97 123 16 296 170 260 44
-10 51 -9 101 18 71 38 205 173 252 254 38 66 45 106 26 141 -8 15 -5 36 12
87 12 37 23 70 25 74 3 3 59 -21 127 -56 67 -34 172 -79 232 -99z m-4 -1971
c178 -51 363 -57 551 -16 89 19 217 66 276 101 18 10 35 19 38 19 2 0 4 -69 4
-153 l0 -154 -280 -196 -281 -197 -272 191 c-150 105 -278 197 -285 203 -10
10 -11 45 -6 158 l7 145 81 -38 c45 -21 120 -49 167 -63z m-139 -467 l331
-232 -125 -123 c-110 -110 -129 -124 -158 -124 -31 0 -56 22 -288 254 l-255
253 77 102 c42 55 79 101 82 101 3 0 154 -104 336 -231z"/>
<path d="M2054 3588 c-30 -14 -44 -50 -44 -112 0 -69 26 -106 76 -106 57 0 74
27 74 114 0 69 -2 76 -26 95 -29 23 -48 25 -80 9z"/>
<path d="M3003 3576 c-26 -22 -28 -30 -28 -94 0 -85 18 -112 75 -112 57 0 75
27 75 112 0 64 -2 72 -28 94 -15 13 -37 24 -47 24 -10 0 -32 -11 -47 -24z"/>
<path d="M2118 3090 c-29 -30 -30 -33 -24 -92 14 -117 77 -242 160 -314 59
-52 169 -102 249 -113 203 -28 401 77 492 263 38 77 60 191 45 231 -21 55 -19
55 -473 55 l-419 0 -30 -30z m762 -135 c0 -29 -48 -110 -87 -147 -21 -20 -64
-49 -96 -63 -51 -24 -68 -27 -140 -23 -93 4 -151 27 -207 80 -45 44 -90 117
-90 145 l0 23 310 0 c272 0 310 -2 310 -15z"/>
<path d="M1835 845 c-23 -22 -25 -32 -25 -120 l0 -95 -124 0 c-111 0 -126 -2
-156 -22 -74 -51 -75 -55 -75 -293 0 -235 1 -239 69 -289 26 -20 42 -21 351
-24 308 -3 326 -2 364 17 21 11 48 36 60 54 20 32 21 48 21 244 0 201 -1 211
-22 243 -40 58 -77 70 -215 70 l-123 0 0 100 c0 89 -2 101 -22 120 -30 27 -73
26 -103 -5z m335 -530 l0 -165 -285 0 -285 0 0 165 0 165 285 0 285 0 0 -165z"/>
</g>
</svg>
