<?xml version="1.0" standalone="no"?>
<!DOCTYPE svg PUBLIC "-//W3C//DTD SVG 20010904//EN"
 "http://www.w3.org/TR/2001/REC-SVG-20010904/DTD/svg10.dtd">
<svg version="1.0" xmlns="http://www.w3.org/2000/svg"
 width="500.000000pt" height="500.000000pt" viewBox="0 0 500.000000 500.000000"
 preserveAspectRatio="xMidYMid meet">

<g transform="translate(0.000000,500.000000) scale(0.100000,-0.100000)"
fill="#000000" stroke="none">
<path d="M2454 3781 c-107 -78 -711 -576 -721 -594 -9 -17 -12 -155 -13 -549
l0 -528 29 -32 29 -33 384 -3 383 -2 80 45 c213 122 398 307 471 472 46 104
48 248 3 339 -88 184 -364 233 -523 93 l-45 -40 -56 45 c-70 58 -141 79 -239
74 -209 -11 -339 -180 -306 -398 21 -137 136 -310 286 -431 85 -69 99 -74 124
-49 27 27 17 47 -55 107 -173 144 -275 307 -275 439 0 106 73 210 164 236 59
16 138 12 188 -10 45 -20 101 -76 130 -131 26 -47 54 -39 92 26 62 104 153
142 281 119 126 -23 205 -158 176 -300 -35 -170 -196 -353 -445 -505 l-66 -41
-359 0 c-318 0 -360 2 -365 16 -3 9 -6 233 -6 499 0 445 1 484 18 503 40 48
698 572 714 570 9 -2 175 -131 368 -287 l350 -285 0 -508 0 -508 -229 0 c-195
0 -232 -2 -245 -16 -20 -19 -21 -48 -2 -63 10 -9 83 -11 261 -9 l247 3 29 33
29 32 0 529 c0 523 0 529 -21 555 -19 25 -667 557 -728 598 -39 27 -92 23
-137 -11z"/>
<path d="M1894 1781 c-23 -14 -38 -36 -54 -78 -42 -109 -70 -196 -70 -215 0
-38 31 -80 73 -99 51 -23 83 -24 141 -4 41 14 48 14 80 -2 30 -14 42 -15 75
-5 30 10 45 10 65 1 20 -10 35 -9 65 1 27 9 44 9 58 2 31 -17 119 -13 136 6 8
10 27 55 42 101 30 92 57 130 80 111 12 -10 10 -22 -10 -77 -30 -78 -31 -94
-6 -124 15 -18 29 -23 79 -25 40 -2 66 2 75 10 7 7 25 51 41 97 17 50 38 93
53 107 42 38 47 13 17 -75 -27 -77 -27 -81 -11 -106 22 -34 74 -44 115 -23 27
14 33 14 62 0 39 -20 94 -13 125 16 13 12 35 20 57 20 57 0 128 73 112 114
-10 26 -42 18 -59 -14 -16 -31 -49 -55 -65 -45 -5 3 0 24 10 48 26 57 25 74
-9 108 -23 22 -39 29 -69 29 -59 0 -93 -33 -126 -124 -29 -78 -55 -112 -80
-103 -13 5 -12 17 9 78 30 88 31 99 5 127 -18 19 -30 22 -87 19 l-67 -2 -37
-98 c-42 -109 -53 -127 -80 -127 -24 0 -24 0 7 94 l26 78 -19 27 c-18 23 -27
26 -86 27 -40 1 -70 -3 -75 -10 -5 -6 -21 -47 -37 -91 -34 -99 -50 -125 -75
-125 -26 0 -25 9 11 118 25 76 29 95 18 108 -8 10 -20 13 -33 9 -12 -4 -42 -6
-67 -6 -63 2 -89 -23 -123 -121 -29 -80 -55 -114 -81 -105 -12 5 -6 32 40 164
60 172 63 190 39 200 -31 12 -46 -12 -99 -162 -58 -162 -77 -189 -141 -201
-39 -7 -86 18 -92 49 -6 30 69 227 91 238 25 14 35 3 39 -41 6 -72 78 -37 78
38 0 73 -92 108 -166 63z m1226 -186 c16 -20 4 -50 -26 -64 -22 -10 -25 -16
-22 -53 2 -35 0 -43 -16 -46 -35 -7 -39 13 -16 85 28 85 53 110 80 78z m-800
-17 c0 -30 -27 -117 -41 -134 -18 -22 -39 -16 -39 9 0 27 28 116 43 135 15 20
37 14 37 -10z"/>
</g>
</svg>
